# xmcd
#
# Track frame offsets: 
#        150
#        14813
#        27511
#        45438
#        59190
#        73919
#        94363
#        107154
#        123098
#        139716
#        159223
#        175804
#
# Disc length: 2615 seconds
#
# Revision: 0
# Processed by: cddbd v1.5.2PL0 Copyright (c) Steve Scherf et al.
# Submitted via: ExactAudioCopy v1.0b1
#
DISCID=ab0a350c
DTITLE=Zayazd - Adam Mickiewicz - Biesiada z wieszczem
DYEAR=1999
DGENRE=Country
TTITLE0=Inwokacja
TTITLE1=Pani Twardowska
TTITLE2=Nad wodą wielką i czystą
TTITLE3=Improwizacja
TTITLE4=Kiedy ślesz bilet bogatym
TTITLE5=Panicz i dziewczyna
TTITLE6=Zaloty
TTITLE7=Sen
TTITLE8=Pieśń Filaretów
TTITLE9=Rozmowa
TTITLE10=Zdrowie Filaretek (Czyn)
TTITLE11=Ostatni Zayazd
EXTD=
EXTT0=
EXTT1=
EXTT2=
EXTT3=
EXTT4=
EXTT5=
EXTT6=
EXTT7=
EXTT8=
EXTT9=
EXTT10=
EXTT11=
PLAYORDER=
